<svg xmlns="http://www.w3.org/2000/svg" width="900" height="900" viewBox="0 0 900 900" font-family="sans-serif">
<rect width="900" height="900" fill="white"/>
<line x1="450" y1="450" x2="221.0" y2="172.2" stroke="#ddd" stroke-width="1"/>
<text x="212.1" y="161.4" font-size="8" fill="#999" text-anchor="middle">1:320.5°</text>
<line x1="450" y1="450" x2="297.9" y2="123.7" stroke="#ddd" stroke-width="1"/>
<text x="291.9" y="111.0" font-size="8" fill="#999" text-anchor="middle">2:335°</text>
<line x1="450" y1="450" x2="376.4" y2="97.6" stroke="#ddd" stroke-width="1"/>
<text x="373.5" y="83.9" font-size="8" fill="#999" text-anchor="middle">3:348.2°</text>
<line x1="450" y1="450" x2="450.0" y2="90.0" stroke="#ddd" stroke-width="1"/>
<text x="450.0" y="76.0" font-size="8" fill="#999" text-anchor="middle">4:0°</text>
<line x1="450" y1="450" x2="527.9" y2="98.5" stroke="#ddd" stroke-width="1"/>
<text x="530.9" y="84.9" font-size="8" fill="#999" text-anchor="middle">5:12.5°</text>
<line x1="450" y1="450" x2="585.4" y2="116.4" stroke="#ddd" stroke-width="1"/>
<text x="590.7" y="103.5" font-size="8" fill="#999" text-anchor="middle">6:22.1°</text>
<line x1="450" y1="450" x2="634.3" y2="140.8" stroke="#ddd" stroke-width="1"/>
<text x="641.5" y="128.7" font-size="8" fill="#999" text-anchor="middle">7:30.8°</text>
<line x1="450" y1="450" x2="674.1" y2="168.3" stroke="#ddd" stroke-width="1"/>
<text x="682.8" y="157.3" font-size="8" fill="#999" text-anchor="middle">8:38.5°</text>
<line x1="450" y1="450" x2="701.0" y2="191.9" stroke="#ddd" stroke-width="1"/>
<text x="710.7" y="181.9" font-size="8" fill="#999" text-anchor="middle">9:44.2°</text>
<line x1="450" y1="450" x2="744.9" y2="243.5" stroke="#ddd" stroke-width="1"/>
<text x="756.4" y="235.5" font-size="8" fill="#999" text-anchor="middle">10:55°</text>
<line x1="450" y1="450" x2="784.3" y2="316.3" stroke="#ddd" stroke-width="1"/>
<text x="797.3" y="311.1" font-size="8" fill="#999" text-anchor="middle">11:68.2°</text>
<line x1="450" y1="450" x2="797.7" y2="356.8" stroke="#ddd" stroke-width="1"/>
<text x="811.3" y="353.2" font-size="8" fill="#999" text-anchor="middle">12:75°</text>
<line x1="450" y1="450" x2="808.3" y2="414.9" stroke="#ddd" stroke-width="1"/>
<text x="822.2" y="413.5" font-size="8" fill="#999" text-anchor="middle">13:84.4°</text>
<line x1="450" y1="450" x2="807.5" y2="492.0" stroke="#ddd" stroke-width="1"/>
<text x="821.4" y="493.6" font-size="8" fill="#999" text-anchor="middle">14:96.7°</text>
<line x1="450" y1="450" x2="797.7" y2="543.2" stroke="#ddd" stroke-width="1"/>
<text x="811.3" y="546.8" font-size="8" fill="#999" text-anchor="middle">15:105°</text>
<line x1="450" y1="450" x2="766.7" y2="621.2" stroke="#ddd" stroke-width="1"/>
<text x="779.0" y="627.9" font-size="8" fill="#999" text-anchor="middle">16:118.4°</text>
<line x1="450" y1="450" x2="742.7" y2="659.6" stroke="#ddd" stroke-width="1"/>
<text x="754.1" y="667.7" font-size="8" fill="#999" text-anchor="middle">17:125.6°</text>
<line x1="450" y1="450" x2="708.5" y2="700.5" stroke="#ddd" stroke-width="1"/>
<text x="718.6" y="710.3" font-size="8" fill="#999" text-anchor="middle">18:134.1°</text>
<line x1="450" y1="450" x2="656.5" y2="744.9" stroke="#ddd" stroke-width="1"/>
<text x="664.5" y="756.4" font-size="8" fill="#999" text-anchor="middle">19:145°</text>
<line x1="450" y1="450" x2="617.3" y2="768.7" stroke="#ddd" stroke-width="1"/>
<text x="623.9" y="781.1" font-size="8" fill="#999" text-anchor="middle">20:152.3°</text>
<line x1="450" y1="450" x2="579.6" y2="785.9" stroke="#ddd" stroke-width="1"/>
<text x="584.6" y="798.9" font-size="8" fill="#999" text-anchor="middle">21:158.9°</text>
<line x1="450" y1="450" x2="540.1" y2="798.5" stroke="#ddd" stroke-width="1"/>
<text x="543.6" y="812.1" font-size="8" fill="#999" text-anchor="middle">22:165.5°</text>
<line x1="450" y1="450" x2="500.1" y2="806.5" stroke="#ddd" stroke-width="1"/>
<text x="502.1" y="820.4" font-size="8" fill="#999" text-anchor="middle">23:172°</text>
<line x1="450" y1="450" x2="450.0" y2="810.0" stroke="#ddd" stroke-width="1"/>
<text x="450.0" y="824.0" font-size="8" fill="#999" text-anchor="middle">24:180°</text>
<line x1="450" y1="450" x2="396.8" y2="806.0" stroke="#ddd" stroke-width="1"/>
<text x="394.7" y="819.9" font-size="8" fill="#999" text-anchor="middle">25:188.5°</text>
<line x1="450" y1="450" x2="355.6" y2="797.4" stroke="#ddd" stroke-width="1"/>
<text x="351.9" y="810.9" font-size="8" fill="#999" text-anchor="middle">26:195.2°</text>
<line x1="450" y1="450" x2="322.2" y2="786.5" stroke="#ddd" stroke-width="1"/>
<text x="317.2" y="799.6" font-size="8" fill="#999" text-anchor="middle">27:200.8°</text>
<line x1="450" y1="450" x2="295.0" y2="774.9" stroke="#ddd" stroke-width="1"/>
<text x="289.0" y="787.6" font-size="8" fill="#999" text-anchor="middle">28:205.5°</text>
<line x1="450" y1="450" x2="268.9" y2="761.1" stroke="#ddd" stroke-width="1"/>
<text x="261.9" y="773.2" font-size="8" fill="#999" text-anchor="middle">29:210.2°</text>
<line x1="450" y1="450" x2="182.5" y2="690.9" stroke="#ddd" stroke-width="1"/>
<text x="172.1" y="700.3" font-size="8" fill="#999" text-anchor="middle">30:228°</text>
<line x1="450" y1="450" x2="153.3" y2="653.9" stroke="#ddd" stroke-width="1"/>
<text x="141.8" y="661.8" font-size="8" fill="#999" text-anchor="middle">31:235.5°</text>
<line x1="450" y1="450" x2="131.8" y2="618.5" stroke="#ddd" stroke-width="1"/>
<text x="119.5" y="625.0" font-size="8" fill="#999" text-anchor="middle">32:242.1°</text>
<line x1="450" y1="450" x2="114.4" y2="580.2" stroke="#ddd" stroke-width="1"/>
<text x="101.3" y="585.2" font-size="8" fill="#999" text-anchor="middle">33:248.8°</text>
<line x1="450" y1="450" x2="102.3" y2="543.2" stroke="#ddd" stroke-width="1"/>
<text x="88.7" y="546.8" font-size="8" fill="#999" text-anchor="middle">34:255°</text>
<line x1="450" y1="450" x2="93.2" y2="497.6" stroke="#ddd" stroke-width="1"/>
<text x="79.3" y="499.5" font-size="8" fill="#999" text-anchor="middle">35:262.4°</text>
<line x1="450" y1="450" x2="90.0" y2="450.0" stroke="#ddd" stroke-width="1"/>
<text x="76.0" y="450.0" font-size="8" fill="#999" text-anchor="middle">36:270°</text>
<line x1="450" y1="450" x2="93.7" y2="398.7" stroke="#ddd" stroke-width="1"/>
<text x="79.8" y="396.7" font-size="8" fill="#999" text-anchor="middle">37:278.2°</text>
<line x1="450" y1="450" x2="103.1" y2="353.8" stroke="#ddd" stroke-width="1"/>
<text x="89.6" y="350.1" font-size="8" fill="#999" text-anchor="middle">38:285.5°</text>
<line x1="450" y1="450" x2="116.4" y2="314.6" stroke="#ddd" stroke-width="1"/>
<text x="103.5" y="309.3" font-size="8" fill="#999" text-anchor="middle">39:292.1°</text>
<line x1="450" y1="450" x2="140.1" y2="266.7" stroke="#ddd" stroke-width="1"/>
<text x="128.1" y="259.6" font-size="8" fill="#999" text-anchor="middle">40:300.6°</text>
<line x1="450" y1="450" x2="174.2" y2="218.6" stroke="#ddd" stroke-width="1"/>
<text x="163.5" y="209.6" font-size="8" fill="#999" text-anchor="middle">41:310°</text>
<circle cx="450" cy="450" r="60.0" fill="none" stroke="#bbb" stroke-width="1"/>
<text x="454" y="400.0" font-size="10" fill="#666">100</text>
<circle cx="450" cy="450" r="120.0" fill="none" stroke="#bbb" stroke-width="1"/>
<text x="454" y="340.0" font-size="10" fill="#666">200</text>
<circle cx="450" cy="450" r="180.0" fill="none" stroke="#bbb" stroke-width="1"/>
<text x="454" y="280.0" font-size="10" fill="#666">300</text>
<circle cx="450" cy="450" r="240.0" fill="none" stroke="#bbb" stroke-width="1"/>
<text x="454" y="220.0" font-size="10" fill="#666">400</text>
<circle cx="450" cy="450" r="300.0" fill="none" stroke="#bbb" stroke-width="1"/>
<text x="454" y="160.0" font-size="10" fill="#666">500</text>
<circle cx="450" cy="450" r="360.0" fill="none" stroke="#bbb" stroke-width="1"/>
<text x="454" y="100.0" font-size="10" fill="#666">600</text>
<circle cx="450" cy="450" r="4" fill="#333"/>
<text x="458" y="442" font-size="11" fill="#333">Cusco</text>
<circle cx="604.2" cy="191.3" r="6" fill="#d62728"/>
<text x="613.2" y="182.3" font-size="12" fill="#d62728" font-weight="bold">T3 CequeID=7 30.8° r=502</text>
<text x="10" y="20" font-size="14" fill="#333">Decoded Spanish camp locations relative to Cusco</text>
</svg>